<svg width="64" height="64" viewBox="0 0 64 64" fill="none" xmlns="http://www.w3.org/2000/svg">
<path d="M32 9C44.7025 9 55 19.2975 55 32C55 44.7025 44.7025 55 32 55C19.2975 55 9 44.7025 9 32C9 19.2975 19.2975 9 32 9ZM14.1738 34.5C15.1246 41.3423 19.9204 46.9536 26.3096 49.0811C23.5998 44.6729 21.9263 39.6861 21.4414 34.5H14.1738ZM42.5586 34.5C42.0737 39.6863 40.3994 44.6728 37.6895 49.0811C44.0791 46.9538 48.8753 41.3426 49.8262 34.5H42.5586ZM26.4658 34.5C27.0263 39.6012 28.9394 44.4589 32 48.5732C35.0606 44.4589 36.9737 39.6012 37.5342 34.5H26.4658ZM37.6895 14.918C40.3996 19.3264 42.0737 24.3134 42.5586 29.5H49.8262C48.8753 22.6573 44.0793 17.0452 37.6895 14.918ZM32 15.4258C28.9391 19.5402 27.0264 24.3985 26.4658 29.5H37.5342C36.9736 24.3985 35.0609 19.5402 32 15.4258ZM26.3096 14.918C19.9202 17.0454 15.1247 22.6576 14.1738 29.5H21.4414C21.9263 24.3136 23.5995 19.3263 26.3096 14.918Z" fill="#0E0741"/>
</svg>
