<svg width="64" height="64" viewBox="0 0 64 64" fill="none" xmlns="http://www.w3.org/2000/svg">
<path d="M36 0C49.1993 0 55.7989 8.08741e-05 59.8994 4.10059C63.9999 8.20109 64 14.8007 64 28V36C64 49.1993 63.9999 55.7989 59.8994 59.8994C55.7989 63.9999 49.1993 64 36 64H28C14.8007 64 8.20109 63.9999 4.10059 59.8994C8.08741e-05 55.7989 0 49.1993 0 36V28C0 14.8007 8.08741e-05 8.20109 4.10059 4.10059C8.20109 8.08741e-05 14.8007 0 28 0H36ZM11.5166 52H20.3057V25.6855H11.5166V52ZM41.8828 25.0684C37.2209 25.0684 35.1316 27.6168 33.9619 29.4092V25.6855H25.1699C25.2855 28.1556 25.1699 52 25.1699 52H33.959V37.3047C33.959 36.5185 34.0155 35.7318 34.249 35.1709C34.8836 33.5982 36.3303 31.9717 38.7598 31.9717C41.9394 31.9718 43.2109 34.3854 43.2109 37.9229V51.998H52V36.9111C52 28.829 47.6644 25.0684 41.8828 25.0684ZM15.9727 13C12.9651 13 11 14.9648 11 17.5469C11 20.0727 12.9064 22.0938 15.8574 22.0938H15.9141C18.978 22.0935 20.8857 20.0726 20.8857 17.5469C20.8291 14.9648 18.9778 13 15.9727 13Z" fill="#0E0741"/>
</svg>
