<svg width="64" height="64" viewBox="0 0 64 64" fill="none" xmlns="http://www.w3.org/2000/svg">
<path d="M49.9091 26.1687L36.4259 35.6556C35.2125 36.5092 34.1759 37.2781 32.9842 37.5767C32.0097 37.8208 30.9903 37.8208 30.0158 37.5767C28.8241 37.2781 27.7875 36.5092 26.5741 35.6556L13.0909 26.1687V39.0782C13.0909 40.8385 13.0916 42.0354 13.1668 42.9604C13.2401 43.8616 13.3734 44.3231 13.5364 44.6446C13.9285 45.418 14.5545 46.0471 15.3241 46.4412C15.644 46.605 16.1033 46.739 17 46.8126C17.9206 46.8882 19.1115 46.8889 20.8632 46.8889H42.1368C43.8885 46.8889 45.0794 46.8882 46 46.8126C46.8967 46.739 47.356 46.605 47.6759 46.4412C48.4455 46.0471 49.0715 45.418 49.4636 44.6446C49.6266 44.3231 49.7599 43.8616 49.8332 42.9604C49.9084 42.0354 49.9091 40.8385 49.9091 39.0782V26.1687ZM20.8632 18.1111C19.1115 18.1111 17.9206 18.1118 17 18.1874C16.1033 18.261 15.644 18.395 15.3241 18.5588C14.5545 18.9529 13.9285 19.582 13.5364 20.3554C13.4278 20.5694 13.3358 20.8462 13.2627 21.2727L28.9192 32.2872C30.4093 33.3354 30.7258 33.518 31.0046 33.588C31.3295 33.6694 31.6705 33.6694 31.9954 33.588C32.2742 33.518 32.5907 33.3354 34.0808 32.2872L49.7353 21.2727C49.6622 20.8464 49.5722 20.5694 49.4636 20.3554C49.0715 19.582 48.4455 18.9529 47.6759 18.5588C47.356 18.395 46.8967 18.261 46 18.1874C45.0794 18.1118 43.8885 18.1111 42.1368 18.1111H20.8632ZM54 39.0782C54 40.7709 54.0021 42.1643 53.9101 43.2957C53.8162 44.451 53.6149 45.5139 53.1091 46.5115C52.3247 48.0583 51.0728 49.3165 49.5336 50.1047C48.5409 50.613 47.4832 50.8153 46.3335 50.9097C45.2078 51.0021 43.8212 51 42.1368 51H20.8632C19.1788 51 17.7922 51.0021 16.6665 50.9097C15.5168 50.8153 14.4591 50.613 13.4664 50.1047C11.9272 49.3165 10.6753 48.0583 9.8909 46.5115C9.3851 45.5139 9.18384 44.451 9.08989 43.2957C8.99791 42.1643 9 40.7709 9 39.0782V25.9218C9 24.6526 8.99963 23.5519 9.03796 22.6036C8.97426 22.2649 8.99492 21.9116 9.10587 21.5758C9.20431 20.4703 9.40397 19.4489 9.8909 18.4885C10.6753 16.9417 11.9272 15.6835 13.4664 14.8953C14.4591 14.387 15.5168 14.1847 16.6665 14.0903C17.7922 13.9979 19.1788 14 20.8632 14H42.1368C43.8212 14 45.2078 13.9979 46.3335 14.0903C47.4832 14.1847 48.5409 14.387 49.5336 14.8953C51.0728 15.6835 52.3247 16.9417 53.1091 18.4885C53.596 19.4489 53.7957 20.4703 53.8941 21.5758C54.0051 21.9116 54.0257 22.2649 53.962 22.6036C54.0004 23.5519 54 24.6526 54 25.9218V39.0782Z" fill="#0E0741"/>
</svg>
