<svg width="64" height="64" viewBox="0 0 64 64" fill="none" xmlns="http://www.w3.org/2000/svg">
<path d="M16.3198 13.7288C18.0171 12.8738 20.0214 12.8738 21.7187 13.7288C22.6438 14.1948 23.4393 15.0197 24.3879 15.9645L24.7754 16.3523C25.4004 16.9747 25.941 17.4969 26.3115 18.0644C27.5999 20.0385 27.6001 22.5841 26.3115 24.5581C25.941 25.1256 25.4004 25.6478 24.7754 26.2703C24.6609 26.3843 24.602 26.4426 24.5612 26.4855L24.5573 26.5088C24.5639 26.5233 24.5724 26.5431 24.5846 26.5689C24.6037 26.6092 24.628 26.6548 24.6586 26.7182C25.9501 29.3972 27.7103 31.9117 29.9445 34.1368C32.1785 36.3617 34.7019 38.115 37.3916 39.4012C37.4556 39.4318 37.5028 39.4558 37.5435 39.4749C37.5682 39.4865 37.5876 39.4937 37.6019 39.5001C37.6058 39.4997 37.6105 39.5009 37.6155 39.5001C37.619 39.4995 37.6222 39.4969 37.6252 39.4962C37.6683 39.4556 37.7287 39.399 37.8433 39.2849C38.4683 38.6624 38.9926 38.124 39.5624 37.755C41.5446 36.4716 44.1005 36.4717 46.0828 37.755C46.6526 38.124 47.1769 38.6624 47.8019 39.2849L48.8766 40.3552C49.5321 41.0194 50.0852 41.6382 50.4361 42.3291C51.2945 44.0194 51.2946 46.0156 50.4361 47.706C49.9681 48.6271 49.1379 49.4177 48.1893 50.3624L47.8759 50.6765C46.8812 51.6672 46.1475 52.4186 45.1404 52.982C44.044 53.5952 42.4689 54.0037 41.2115 54C40.0721 53.9966 39.252 53.7534 38.1626 53.4454C31.7964 51.6459 25.7896 48.2486 20.7822 43.2618C15.7748 38.2748 12.3638 32.2925 10.5569 25.9523C10.2476 24.8673 10.0035 24.0505 10 22.9158C9.99628 21.6636 10.4065 20.0948 11.0222 19.0029C11.5879 18 12.3424 17.2692 13.3371 16.2786L14.3378 15.2819C15.0048 14.6291 15.626 14.0783 16.3198 13.7288ZM19.9197 17.2714C19.3539 16.9864 18.6846 16.9864 18.1188 17.2714C17.9061 17.3786 17.6411 17.6094 16.4717 18.7741L16.1563 19.0863C15.0397 20.1983 14.7381 20.5211 14.4975 20.9477C14.2188 21.4424 13.9857 22.3373 13.9874 22.9042C13.9889 23.4085 14.063 23.7129 14.3923 24.8684C16.0184 30.574 19.0871 35.9582 23.6014 40.4541C28.1157 44.9499 33.522 48.0042 39.2509 49.6236C40.4115 49.9517 40.7166 50.0274 41.2232 50.0289C41.7927 50.0306 42.6911 49.7967 43.1876 49.5189C43.616 49.2793 43.9401 48.9809 45.0567 47.8688L45.3702 47.5547C46.5405 46.3892 46.7714 46.1243 46.8791 45.9124C47.1647 45.3491 47.1651 44.6839 46.8791 44.1207C46.7714 43.9088 46.5405 43.644 45.3702 42.4784L44.9827 42.0925C44.2139 41.3269 44.041 41.1691 43.91 41.0843C43.2492 40.6564 42.396 40.6564 41.7352 41.0843C41.6042 41.1692 41.4311 41.3271 40.6625 42.0925C40.4769 42.2774 40.2343 42.5271 39.9382 42.7382C38.9674 43.4303 37.6481 43.6546 36.5018 43.3219C36.157 43.2218 35.8775 43.0834 35.6666 42.9826C32.5765 41.505 29.6822 39.4908 27.1254 36.9445C24.5685 34.3981 22.5462 31.5156 21.0626 28.4381C20.9613 28.228 20.8224 27.9497 20.7219 27.6062C20.3877 26.4647 20.613 25.1508 21.3079 24.1839C21.5199 23.889 21.7707 23.6474 21.9562 23.4626C22.7247 22.6972 22.8834 22.5247 22.9686 22.3942C23.3982 21.7362 23.3981 20.8864 22.9686 20.2283C22.8834 20.0978 22.7252 19.9258 21.9562 19.1599L21.5668 18.7741C20.3971 17.6091 20.1324 17.3786 19.9197 17.2714ZM36.3363 17.95L36.5388 17.9791L36.9749 18.0722C39.1423 18.5775 41.1286 19.6765 42.7068 21.2482C44.2849 22.8201 45.3885 24.798 45.8958 26.9567L45.9893 27.391L46.0185 27.5907C46.1113 28.5931 45.4274 29.5227 44.4142 29.7198C43.4013 29.9166 42.4176 29.3117 42.1246 28.3489L42.0759 28.1511L41.9397 27.5752C41.5749 26.2479 40.8694 25.0339 39.8876 24.0559C38.9058 23.0781 37.6865 22.3756 36.3539 22.0122L35.7756 21.8765L35.577 21.828C34.6099 21.5365 34.0029 20.5568 34.2005 19.5477C34.3982 18.5388 35.3302 17.8583 36.3363 17.95ZM36.3772 10.0117L37.2164 10.1222C41.3926 10.764 45.2651 12.7127 48.2653 15.6969C51.4652 18.8799 53.4822 23.0527 53.9873 27.5287C54.1103 28.6184 53.3234 29.6012 52.2293 29.7236C51.2032 29.8385 50.2719 29.1564 50.0584 28.1724L50.0253 27.9727L49.9358 27.3038C49.416 23.9772 47.8462 20.8938 45.4461 18.5065C43.0462 16.1197 39.9493 14.5602 36.6089 14.0468L35.9372 13.9595L35.7347 13.9266C34.7472 13.7147 34.0614 12.788 34.1752 11.7665C34.2892 10.7449 35.1626 9.99086 36.1728 10.0001L36.3772 10.0117Z" fill="#0E0741"/>
</svg>
